<svg xmlns="http://www.w3.org/2000/svg" viewBox="0 0 1000 360" role="img" aria-label="Kafka motivating example showing producers, partitions, and consumers"><rect width="1000" height="360" fill="#0d0f15"/><path d="M42 121 L228 119 L231 238 L41 242 Z" fill="#171922" stroke="#c6c3d1" stroke-width="2.2" stroke-linejoin="round"/><text x="135" y="169.2" text-anchor="middle" font-family="Virgil, 'Segoe Print', 'Comic Sans MS', cursive" font-size="18" fill="#f1eff8" dominant-baseline="middle"><tspan x="135" dy="0">Event producers</tspan><tspan x="135" dy="21.599999999999998">services emitting events</tspan></text><path d="M367 66 L568 64 L571 145 L366 149 Z" fill="#211b30" stroke="#b99af7" stroke-width="2.2" stroke-linejoin="round"/><text x="467.5" y="95.2" text-anchor="middle" font-family="Virgil, 'Segoe Print', 'Comic Sans MS', cursive" font-size="18" fill="#f1eff8" dominant-baseline="middle"><tspan x="467.5" dy="0">Partition 0</tspan><tspan x="467.5" dy="21.599999999999998">ordered log</tspan></text><path d="M367 181 L568 179 L571 260 L366 264 Z" fill="#171922" stroke="#c6c3d1" stroke-width="2.2" stroke-linejoin="round"/><text x="467.5" y="210.2" text-anchor="middle" font-family="Virgil, 'Segoe Print', 'Comic Sans MS', cursive" font-size="18" fill="#f1eff8" dominant-baseline="middle"><tspan x="467.5" dy="0">Partition 1</tspan><tspan x="467.5" dy="21.599999999999998">ordered log</tspan></text><path d="M697 121 L883 119 L886 238 L696 242 Z" fill="#171922" stroke="#c6c3d1" stroke-width="2.2" stroke-linejoin="round"/><text x="790" y="169.2" text-anchor="middle" font-family="Virgil, 'Segoe Print', 'Comic Sans MS', cursive" font-size="18" fill="#f1eff8" dominant-baseline="middle"><tspan x="790" dy="0">Consumers</tspan><tspan x="790" dy="21.599999999999998">scoreboard / analytics</tspan></text><line x1="230" y1="175" x2="365" y2="106" stroke="#b99af7" stroke-width="2.2" stroke-linecap="round"/><path d="M357.89419155860975 116.88611438458494 L365 106 L352.01466475943204 105.3826923861937" fill="none" stroke="#b99af7" stroke-width="2.2" stroke-linecap="round" stroke-linejoin="round"/><text x="295" y="126" text-anchor="middle" font-family="Virgil, 'Segoe Print', 'Comic Sans MS', cursive" font-size="14" fill="#a8aab6" dominant-baseline="middle"><tspan x="295" dy="0">publish</tspan></text><line x1="230" y1="175" x2="365" y2="221" stroke="#b99af7" stroke-width="2.2" stroke-linecap="round"/><path d="M352.23788375206976 223.47555829547892 L365 221 L356.4046262913298 211.2470747563461" fill="none" stroke="#b99af7" stroke-width="2.2" stroke-linecap="round" stroke-linejoin="round"/><line x1="570" y1="106" x2="695" y2="155" stroke="#b99af7" stroke-width="2.2" stroke-linecap="round"/><path d="M682.1390829287622 156.8965263211311 L695 155 L686.8539709355268 144.8687507936702" fill="none" stroke="#b99af7" stroke-width="2.2" stroke-linecap="round" stroke-linejoin="round"/><text x="625" y="120" text-anchor="middle" font-family="Virgil, 'Segoe Print', 'Comic Sans MS', cursive" font-size="14" fill="#a8aab6" dominant-baseline="middle"><tspan x="625" dy="0">poll</tspan></text><line x1="570" y1="221" x2="695" y2="210" stroke="#b99af7" stroke-width="2.2" stroke-linecap="round"/><path d="M684.3280237430334 217.42353842656865 L695 210 L683.1955385138401 204.55438809482646" fill="none" stroke="#b99af7" stroke-width="2.2" stroke-linecap="round" stroke-linejoin="round"/><text x="40" y="292" text-anchor="start" font-family="Virgil, 'Segoe Print', 'Comic Sans MS', cursive" font-size="16" fill="#a8aab6" dominant-baseline="middle"><tspan x="40" dy="0">Same event stream → independently scalable consumers</tspan></text></svg>